<?xml version="1.0" encoding="UTF-8"?><svg id="Layer_2" xmlns="http://www.w3.org/2000/svg" viewBox="0 0 563.23 534.82"><defs><style>.cls-1{fill:none;stroke:#000;stroke-linecap:round;stroke-linejoin:round;stroke-width:8.4px;}.cls-1,.cls-2{fill-rule:evenodd;}.cls-2{fill:#f9c;}</style></defs><g id="Layer_1-2"><g><path class="cls-2" d="M232.36,488.97c-54.59-18.22-122.59-46.22-160.49-100.34-37.91-54.12-45.72-134.36-44.52-190.76,1.2-56.4,11.41-88.96,34.84-114.52,23.43-25.56,60.07-44.12,108.47-52.92,48.4-8.8,108.56-7.84,163.17,4.02,54.61,11.86,103.67,34.61,140.22,75.61,36.55,41.01,60.59,100.28,65.26,144.1,4.67,43.82-10.03,72.21-25.9,105.99-15.86,33.78-32.89,72.97-57.1,101.19-24.21,28.22-55.61,45.47-91.9,49.88-36.29,4.41-77.46-4.04-132.05-22.26h0Zm56.75-289.3c-13.04,11.84-24.98,32.71-27.37,51.58-2.39,18.88,4.78,35.77,23.79,46.2,19.01,10.43,49.87,14.41,70.67,6.38,20.8-8.03,31.55-28.07,35.53-44.88,3.98-16.81,1.19-30.39-10.15-42.64-11.35-12.25-31.25-23.18-48.27-27.24-17.02-4.06-31.15-1.24-44.19,10.6Z"/><path class="cls-1" d="M182.81,499.1c-8.71-29.14-26.33-69.55-47.33-120.92-31.38-76.77-70.29-178.02-64.01-220.49,6.28-42.47,57.74-26.15,121.75,49.16,64.01,75.31,140.58,209.61,191.41,269.02,50.83,59.41,75.94,43.93,91-1.67,15.06-45.6,20.08-121.33-3.14-205.01-23.22-83.68-74.68-175.3-84.1-219.65-9.41-44.35,23.22-41.42,66.94,4.39,43.72,45.81,98.53,134.51,103.34,215.68,4.81,81.17-40.37,154.8-95.18,202.71-54.81,47.91-119.24,70.08-201.66,52.09-82.42-17.99-182.84-76.15-227.6-150.83C-10.54,298.89,.34,207.69,30.46,143.46,60.59,79.24,109.96,42,158.91,20.67,207.86-.67,256.39-6.11,304.3,34.06c47.91,40.17,95.18,125.94,97.28,180.12,2.09,54.18-41,76.77-74.89,80.75-33.89,3.97-58.57-10.67-60.46-31.8-1.88-21.13,19.04-48.74,47.49-55.44,28.45-6.69,64.43,7.53,76.98,50.62,12.55,43.09,1.67,115.06-5.62,169.46-5.8,43.27-9.33,75.44-5.91,95.87"/></g></g></svg>